ffmpeg started on 2025-05-12 at 18:48:24
Report written to "D:\Convert\FFMetrics\reports\psnr_report-6.txt"
Log level: 32
Command line:
ffmpeg -hide_banner -nostdin -i "G:\\\xc0\xed\xe8\xec\xe5\\\xce\xed\xe3\xee\xe8\xed\xe3\xe8\\!_35_\xcb\xe5\xf2\xee_2024\\DreamCast\\\xcf\xee\xea\xe0-\xef\xee\xea\xe0, \xc7\xe5\xec\xeb\xff\\[DC] Bye Bye Earth - 07_Telegram_HEVC.mkv" -i "G:\\\xc0\xed\xe8\xec\xe5\\\xce\xed\xe3\xee\xe8\xed\xe3\xe8\\!_35_\xcb\xe5\xf2\xee_2024\\DreamCast\\\xcf\xee\xea\xe0-\xef\xee\xea\xe0, \xc7\xe5\xec\xeb\xff\\[DC] Bye Bye Earth - 07_Telegram.mp4" -lavfi "[0:v]settb=AVTB,setpts=PTS-STARTPTS,format=pix_fmts=yuv420p10,fps=24000/1001,scale=1920:1080:flags=bicubic[main];[1:v]settb=AVTB,setpts=PTS-STARTPTS,format=pix_fmts=yuv420p,fps=24000/1001,scale=1920:1080:flags=bicubic[ref];[main][ref]psnr=eof_action=endall:stats_file='D\\:/Convert/FFMetrics/logs/psnr_logfile-6.txt'" -f null -
Input #0, matroska,webm, from 'G:\Аниме\Онгоинги\!_35_Лето_2024\DreamCast\Пока-пока, Земля\[DC] Bye Bye Earth - 07_Telegram_HEVC.mkv':
  Metadata:
    COMPATIBLE_BRANDS: isomiso2avc1mp41
    MAJOR_BRAND     : isom
    MINOR_VERSION   : 512
    ENCODER         : Lavf61.7.100
  Duration: 00:23:48.91, start: -0.021000, bitrate: 1012 kb/s
  Stream #0:0: Video: hevc (Main 10), yuv420p10le(tv, bt709, progressive), 1920x1080 [SAR 1:1 DAR 16:9], 23.98 fps, 23.98 tbr, 1k tbn (default)
      Metadata:
        HANDLER_NAME    : VideoHandler
        VENDOR_ID       : [0][0][0][0]
        ENCODER         : Lavc61.19.100 libx265
        BPS             : 816013
        DURATION        : 00:23:46.549708333
        NUMBER_OF_FRAMES: 34203
        NUMBER_OF_BYTES : 145510428
        _STATISTICS_WRITING_APP: mkvpropedit v66.0.0 ('Josie') 64-bit
        _STATISTICS_WRITING_DATE_UTC: 2025-05-09 16:32:51
        _STATISTICS_TAGS: BPS DURATION NUMBER_OF_FRAMES NUMBER_OF_BYTES
  Stream #0:1: Audio: aac (LC), 48000 Hz, stereo, fltp (default)
      Metadata:
        HANDLER_NAME    : SoundHandler
        VENDOR_ID       : [0][0][0][0]
        ENCODER         : Lavc61.19.100 aac
        BPS             : 193338
        DURATION        : 00:23:48.906000000
        NUMBER_OF_FRAMES: 66981
        NUMBER_OF_BYTES : 34532755
        _STATISTICS_WRITING_APP: mkvpropedit v66.0.0 ('Josie') 64-bit
        _STATISTICS_WRITING_DATE_UTC: 2025-05-09 16:32:51
        _STATISTICS_TAGS: BPS DURATION NUMBER_OF_FRAMES NUMBER_OF_BYTES
Input #1, mov,mp4,m4a,3gp,3g2,mj2, from 'G:\Аниме\Онгоинги\!_35_Лето_2024\DreamCast\Пока-пока, Земля\[DC] Bye Bye Earth - 07_Telegram.mp4':
  Metadata:
    major_brand     : isom
    minor_version   : 512
    compatible_brands: isomiso2avc1mp41
    encoder         : Lavf60.16.100
  Duration: 00:23:48.88, start: 0.000000, bitrate: 3869 kb/s
  Stream #1:0[0x1](und): Video: h264 (High) (avc1 / 0x31637661), yuv420p(tv, bt709, progressive), 1920x1080 [SAR 1:1 DAR 16:9], 3727 kb/s, 23.98 fps, 23.98 tbr, 24k tbn (default)
      Metadata:
        handler_name    : VideoHandler
        vendor_id       : [0][0][0][0]
        encoder         : Lavc60.31.102 h264_qsv
  Stream #1:1[0x2](und): Audio: aac (HE-AACv2) (mp4a / 0x6134706D), 48000 Hz, stereo, fltp, 144 kb/s (default)
      Metadata:
        handler_name    : SoundHandler
        vendor_id       : [0][0][0][0]
Stream mapping:
  Stream #0:0 (hevc) -> settb:default
  Stream #1:0 (h264) -> settb:default
  psnr:default -> Stream #0:0 (wrapped_avframe)
  Stream #0:1 -> #0:1 (aac (native) -> pcm_s16le (native))
Output #0, null, to 'pipe:':
  Metadata:
    COMPATIBLE_BRANDS: isomiso2avc1mp41
    MAJOR_BRAND     : isom
    MINOR_VERSION   : 512
    encoder         : Lavf61.7.100
  Stream #0:0: Video: wrapped_avframe, yuv420p10le(tv, bt709, progressive), 1920x1080 [SAR 1:1 DAR 16:9], q=2-31, 200 kb/s, 23.98 fps, 23.98 tbn
      Metadata:
        encoder         : Lavc61.19.100 wrapped_avframe
  Stream #0:1: Audio: pcm_s16le, 48000 Hz, stereo, s16, 1536 kb/s (default)
      Metadata:
        HANDLER_NAME    : SoundHandler
        VENDOR_ID       : [0][0][0][0]
        _STATISTICS_TAGS: BPS DURATION NUMBER_OF_FRAMES NUMBER_OF_BYTES
        BPS             : 193338
        DURATION        : 00:23:48.906000000
        NUMBER_OF_FRAMES: 66981
        NUMBER_OF_BYTES : 34532755
        _STATISTICS_WRITING_APP: mkvpropedit v66.0.0 ('Josie') 64-bit
        _STATISTICS_WRITING_DATE_UTC: 2025-05-09 16:32:51
        encoder         : Lavc61.19.100 pcm_s16le
frame=  173 fps=0.0 q=-0.0 size=N/A time=00:00:07.21 bitrate=N/A speed=13.8x    frame=  377 fps=366 q=-0.0 size=N/A time=00:00:15.72 bitrate=N/A speed=15.3x    frame=  600 fps=386 q=-0.0 size=N/A time=00:00:25.02 bitrate=N/A speed=16.1x    frame=  790 fps=380 q=-0.0 size=N/A time=00:00:32.94 bitrate=N/A speed=15.9x    frame= 1000 fps=387 q=-0.0 size=N/A time=00:00:41.70 bitrate=N/A speed=16.1x    frame= 1219 fps=392 q=-0.0 size=N/A time=00:00:50.84 bitrate=N/A speed=16.4x    frame= 1443 fps=397 q=-0.0 size=N/A time=00:01:00.18 bitrate=N/A speed=16.6x    frame= 1666 fps=401 q=-0.0 size=N/A time=00:01:09.48 bitrate=N/A speed=16.7x    frame= 1871 fps=401 q=-0.0 size=N/A time=00:01:18.03 bitrate=N/A speed=16.7x    frame= 2075 fps=400 q=-0.0 size=N/A time=00:01:26.54 bitrate=N/A speed=16.7x    frame= 2283 fps=401 q=-0.0 size=N/A time=00:01:35.22 bitrate=N/A speed=16.7x    frame= 2472 fps=398 q=-0.0 size=N/A time=00:01:43.10 bitrate=N/A speed=16.6x    frame= 2651 fps=394 q=-0.0 size=N/A time=00:01:50.56 bitrate=N/A speed=16.4x    frame= 2869 fps=396 q=-0.0 size=N/A time=00:01:59.66 bitrate=N/A speed=16.5x    frame= 3071 fps=395 q=-0.0 size=N/A time=00:02:08.08 bitrate=N/A speed=16.5x    frame= 3284 fps=396 q=-0.0 size=N/A time=00:02:16.97 bitrate=N/A speed=16.5x    frame= 3460 fps=393 q=-0.0 size=N/A time=00:02:24.31 bitrate=N/A speed=16.4x    frame= 3645 fps=391 q=-0.0 size=N/A time=00:02:32.02 bitrate=N/A speed=16.3x    frame= 3870 fps=393 q=-0.0 size=N/A time=00:02:41.41 bitrate=N/A speed=16.4x    frame= 4073 fps=393 q=-0.0 size=N/A time=00:02:49.87 bitrate=N/A speed=16.4x    frame= 4317 fps=397 q=-0.0 size=N/A time=00:03:00.05 bitrate=N/A speed=16.5x    frame= 4558 fps=400 q=-0.0 size=N/A time=00:03:10.10 bitrate=N/A speed=16.7x    frame= 4812 fps=404 q=-0.0 size=N/A time=00:03:20.70 bitrate=N/A speed=16.8x    frame= 5058 fps=407 q=-0.0 size=N/A time=00:03:30.96 bitrate=N/A speed=  17x    frame= 5324 fps=411 q=-0.0 size=N/A time=00:03:42.05 bitrate=N/A speed=17.2x    frame= 5583 fps=415 q=-0.0 size=N/A time=00:03:52.85 bitrate=N/A speed=17.3x    frame= 5839 fps=418 q=-0.0 size=N/A time=00:04:03.53 bitrate=N/A speed=17.4x    frame= 6114 fps=422 q=-0.0 size=N/A time=00:04:15.00 bitrate=N/A speed=17.6x    frame= 6377 fps=425 q=-0.0 size=N/A time=00:04:25.97 bitrate=N/A speed=17.7x    frame= 6647 fps=428 q=-0.0 size=N/A time=00:04:37.23 bitrate=N/A speed=17.9x    frame= 6879 fps=429 q=-0.0 size=N/A time=00:04:46.91 bitrate=N/A speed=17.9x    frame= 7136 fps=431 q=-0.0 size=N/A time=00:04:57.63 bitrate=N/A speed=  18x    frame= 7394 fps=433 q=-0.0 size=N/A time=00:05:08.39 bitrate=N/A speed=18.1x    frame= 7628 fps=434 q=-0.0 size=N/A time=00:05:18.15 bitrate=N/A speed=18.1x    frame= 7906 fps=437 q=-0.0 size=N/A time=00:05:29.74 bitrate=N/A speed=18.2x    frame= 8171 fps=439 q=-0.0 size=N/A time=00:05:40.79 bitrate=N/A speed=18.3x    frame= 8447 fps=441 q=-0.0 size=N/A time=00:05:52.31 bitrate=N/A speed=18.4x    frame= 8702 fps=443 q=-0.0 size=N/A time=00:06:02.94 bitrate=N/A speed=18.5x    frame= 8960 fps=444 q=-0.0 size=N/A time=00:06:13.70 bitrate=N/A speed=18.5x    frame= 9240 fps=447 q=-0.0 size=N/A time=00:06:25.38 bitrate=N/A speed=18.6x    frame= 9478 fps=447 q=-0.0 size=N/A time=00:06:35.31 bitrate=N/A speed=18.7x    frame= 9734 fps=448 q=-0.0 size=N/A time=00:06:45.98 bitrate=N/A speed=18.7x    frame= 9992 fps=450 q=-0.0 size=N/A time=00:06:56.74 bitrate=N/A speed=18.7x    frame=10252 fps=451 q=-0.0 size=N/A time=00:07:07.59 bitrate=N/A speed=18.8x    frame=10498 fps=451 q=-0.0 size=N/A time=00:07:17.85 bitrate=N/A speed=18.8x    frame=10755 fps=453 q=-0.0 size=N/A time=00:07:28.57 bitrate=N/A speed=18.9x    frame=11048 fps=455 q=-0.0 size=N/A time=00:07:40.79 bitrate=N/A speed=  19x    frame=11323 fps=456 q=-0.0 size=N/A time=00:07:52.26 bitrate=N/A speed=  19x    frame=11606 fps=458 q=-0.0 size=N/A time=00:08:04.06 bitrate=N/A speed=19.1x    frame=11835 fps=458 q=-0.0 size=N/A time=00:08:13.61 bitrate=N/A speed=19.1x    frame=12038 fps=456 q=-0.0 size=N/A time=00:08:22.08 bitrate=N/A speed=  19x    frame=12210 fps=454 q=-0.0 size=N/A time=00:08:29.25 bitrate=N/A speed=18.9x    frame=12412 fps=453 q=-0.0 size=N/A time=00:08:37.68 bitrate=N/A speed=18.9x    frame=12595 fps=451 q=-0.0 size=N/A time=00:08:45.31 bitrate=N/A speed=18.8x    frame=12877 fps=453 q=-0.0 size=N/A time=00:08:57.07 bitrate=N/A speed=18.9x    frame=13137 fps=454 q=-0.0 size=N/A time=00:09:07.92 bitrate=N/A speed=18.9x    frame=13403 fps=455 q=-0.0 size=N/A time=00:09:19.01 bitrate=N/A speed=  19x    frame=13680 fps=456 q=-0.0 size=N/A time=00:09:30.57 bitrate=N/A speed=  19x    frame=13948 fps=457 q=-0.0 size=N/A time=00:09:41.74 bitrate=N/A speed=19.1x    frame=14219 fps=458 q=-0.0 size=N/A time=00:09:53.05 bitrate=N/A speed=19.1x    frame=14436 fps=458 q=-0.0 size=N/A time=00:10:02.10 bitrate=N/A speed=19.1x    frame=14715 fps=459 q=-0.0 size=N/A time=00:10:13.73 bitrate=N/A speed=19.2x    frame=14993 fps=461 q=-0.0 size=N/A time=00:10:25.33 bitrate=N/A speed=19.2x    frame=15227 fps=460 q=-0.0 size=N/A time=00:10:35.09 bitrate=N/A speed=19.2x    frame=15502 fps=462 q=-0.0 size=N/A time=00:10:46.56 bitrate=N/A speed=19.3x    frame=15741 fps=462 q=-0.0 size=N/A time=00:10:56.53 bitrate=N/A speed=19.2x    frame=16003 fps=462 q=-0.0 size=N/A time=00:11:07.45 bitrate=N/A speed=19.3x    frame=16286 fps=464 q=-0.0 size=N/A time=00:11:19.26 bitrate=N/A speed=19.3x    frame=16561 fps=465 q=-0.0 size=N/A time=00:11:30.73 bitrate=N/A speed=19.4x    frame=16828 fps=465 q=-0.0 size=N/A time=00:11:41.86 bitrate=N/A speed=19.4x    frame=17063 fps=465 q=-0.0 size=N/A time=00:11:51.66 bitrate=N/A speed=19.4x    frame=17264 fps=464 q=-0.0 size=N/A time=00:12:00.05 bitrate=N/A speed=19.4x    frame=17484 fps=464 q=-0.0 size=N/A time=00:12:09.22 bitrate=N/A speed=19.3x    frame=17741 fps=464 q=-0.0 size=N/A time=00:12:19.94 bitrate=N/A speed=19.4x    frame=17990 fps=464 q=-0.0 size=N/A time=00:12:30.33 bitrate=N/A speed=19.4x    frame=18264 fps=465 q=-0.0 size=N/A time=00:12:41.76 bitrate=N/A speed=19.4x    frame=18537 fps=466 q=-0.0 size=N/A time=00:12:53.14 bitrate=N/A speed=19.4x    frame=18826 fps=467 q=-0.0 size=N/A time=00:13:05.20 bitrate=N/A speed=19.5x    frame=19110 fps=468 q=-0.0 size=N/A time=00:13:17.04 bitrate=N/A speed=19.5x    frame=19385 fps=469 q=-0.0 size=N/A time=00:13:28.51 bitrate=N/A speed=19.6x    frame=19671 fps=470 q=-0.0 size=N/A time=00:13:40.44 bitrate=N/A speed=19.6x    frame=19933 fps=471 q=-0.0 size=N/A time=00:13:51.37 bitrate=N/A speed=19.6x    frame=20220 fps=472 q=-0.0 size=N/A time=00:14:03.34 bitrate=N/A speed=19.7x    frame=20481 fps=472 q=-0.0 size=N/A time=00:14:14.22 bitrate=N/A speed=19.7x    frame=20760 fps=473 q=-0.0 size=N/A time=00:14:25.86 bitrate=N/A speed=19.7x    frame=21031 fps=473 q=-0.0 size=N/A time=00:14:37.16 bitrate=N/A speed=19.7x    frame=21314 fps=474 q=-0.0 size=N/A time=00:14:48.97 bitrate=N/A speed=19.8x    frame=21602 fps=475 q=-0.0 size=N/A time=00:15:00.98 bitrate=N/A speed=19.8x    frame=21876 fps=476 q=-0.0 size=N/A time=00:15:12.41 bitrate=N/A speed=19.8x    frame=22139 fps=476 q=-0.0 size=N/A time=00:15:23.38 bitrate=N/A speed=19.9x    frame=22373 fps=476 q=-0.0 size=N/A time=00:15:33.14 bitrate=N/A speed=19.8x    frame=22624 fps=476 q=-0.0 size=N/A time=00:15:43.60 bitrate=N/A speed=19.8x    frame=22893 fps=476 q=-0.0 size=N/A time=00:15:54.82 bitrate=N/A speed=19.9x    frame=23146 fps=476 q=-0.0 size=N/A time=00:16:05.38 bitrate=N/A speed=19.9x    frame=23387 fps=476 q=-0.0 size=N/A time=00:16:15.43 bitrate=N/A speed=19.9x    frame=23625 fps=476 q=-0.0 size=N/A time=00:16:25.35 bitrate=N/A speed=19.9x    frame=23867 fps=476 q=-0.0 size=N/A time=00:16:35.45 bitrate=N/A speed=19.9x    frame=24106 fps=476 q=-0.0 size=N/A time=00:16:45.42 bitrate=N/A speed=19.9x    frame=24347 fps=476 q=-0.0 size=N/A time=00:16:55.47 bitrate=N/A speed=19.8x    frame=24606 fps=476 q=-0.0 size=N/A time=00:17:06.31 bitrate=N/A speed=19.9x    frame=24892 fps=477 q=-0.0 size=N/A time=00:17:18.20 bitrate=N/A speed=19.9x    frame=25128 fps=477 q=-0.0 size=N/A time=00:17:28.04 bitrate=N/A speed=19.9x    frame=25394 fps=477 q=-0.0 size=N/A time=00:17:39.14 bitrate=N/A speed=19.9x    frame=25602 fps=476 q=-0.0 size=N/A time=00:17:47.81 bitrate=N/A speed=19.9x    frame=25883 fps=477 q=-0.0 size=N/A time=00:17:59.53 bitrate=N/A speed=19.9x    frame=26127 fps=477 q=-0.0 size=N/A time=00:18:09.71 bitrate=N/A speed=19.9x    frame=26391 fps=477 q=-0.0 size=N/A time=00:18:20.72 bitrate=N/A speed=19.9x    frame=26644 fps=478 q=-0.0 size=N/A time=00:18:31.27 bitrate=N/A speed=19.9x    frame=26904 fps=478 q=-0.0 size=N/A time=00:18:42.12 bitrate=N/A speed=19.9x    frame=27166 fps=478 q=-0.0 size=N/A time=00:18:53.04 bitrate=N/A speed=19.9x    frame=27457 fps=479 q=-0.0 size=N/A time=00:19:05.18 bitrate=N/A speed=  20x    frame=27735 fps=479 q=-0.0 size=N/A time=00:19:16.78 bitrate=N/A speed=  20x    frame=28029 fps=480 q=-0.0 size=N/A time=00:19:29.04 bitrate=N/A speed=  20x    frame=28306 fps=481 q=-0.0 size=N/A time=00:19:40.59 bitrate=N/A speed=  20x    frame=28595 fps=481 q=-0.0 size=N/A time=00:19:52.64 bitrate=N/A speed=20.1x    frame=28843 fps=481 q=-0.0 size=N/A time=00:20:02.99 bitrate=N/A speed=20.1x    frame=29113 fps=482 q=-0.0 size=N/A time=00:20:14.25 bitrate=N/A speed=20.1x    frame=29386 fps=482 q=-0.0 size=N/A time=00:20:25.64 bitrate=N/A speed=20.1x    frame=29635 fps=482 q=-0.0 size=N/A time=00:20:36.02 bitrate=N/A speed=20.1x    frame=29900 fps=482 q=-0.0 size=N/A time=00:20:47.07 bitrate=N/A speed=20.1x    frame=30150 fps=482 q=-0.0 size=N/A time=00:20:57.50 bitrate=N/A speed=20.1x    frame=30390 fps=482 q=-0.0 size=N/A time=00:21:07.51 bitrate=N/A speed=20.1x    frame=30638 fps=482 q=-0.0 size=N/A time=00:21:17.85 bitrate=N/A speed=20.1x    frame=30903 fps=482 q=-0.0 size=N/A time=00:21:28.91 bitrate=N/A speed=20.1x    frame=31152 fps=482 q=-0.0 size=N/A time=00:21:39.29 bitrate=N/A speed=20.1x    frame=31401 fps=483 q=-0.0 size=N/A time=00:21:49.68 bitrate=N/A speed=20.1x    frame=31654 fps=483 q=-0.0 size=N/A time=00:22:00.23 bitrate=N/A speed=20.1x    frame=31908 fps=483 q=-0.0 size=N/A time=00:22:10.82 bitrate=N/A speed=20.1x    frame=32167 fps=483 q=-0.0 size=N/A time=00:22:21.63 bitrate=N/A speed=20.1x    frame=32440 fps=483 q=-0.0 size=N/A time=00:22:33.01 bitrate=N/A speed=20.1x    frame=32713 fps=483 q=-0.0 size=N/A time=00:22:44.40 bitrate=N/A speed=20.2x    frame=32974 fps=484 q=-0.0 size=N/A time=00:22:55.29 bitrate=N/A speed=20.2x    frame=33231 fps=484 q=-0.0 size=N/A time=00:23:06.00 bitrate=N/A speed=20.2x    frame=33479 fps=484 q=-0.0 size=N/A time=00:23:16.35 bitrate=N/A speed=20.2x    frame=33726 fps=484 q=-0.0 size=N/A time=00:23:26.65 bitrate=N/A speed=20.2x    frame=33991 fps=484 q=-0.0 size=N/A time=00:23:37.70 bitrate=N/A speed=20.2x    [Parsed_psnr_10 @ 00000238a6f9dcc0] PSNR y:48.716375 u:51.446603 v:51.121976 average:49.415374 min:41.494726 max:inf
[out#0/null @ 00000238a5fd54c0] video:14697KiB audio:267924KiB subtitle:0KiB other streams:0KiB global headers:0KiB muxing overhead: unknown
frame=34203 fps=484 q=-0.0 Lsize=N/A time=00:23:46.55 bitrate=N/A speed=20.2x    
